<mxfile host="65bd71144e">
    <diagram id="hx1HexMVzk6d0rv9TK2c" name="Page-1">
        <mxGraphModel dx="2578" dy="1762" grid="1" gridSize="10" guides="1" tooltips="1" connect="1" arrows="1" fold="1" page="1" pageScale="1" pageWidth="850" pageHeight="1100" math="0" shadow="0">
            <root>
                <mxCell id="0"/>
                <mxCell id="1" parent="0"/>
                <mxCell id="5" value="" style="shape=image;verticalLabelPosition=bottom;labelBackgroundColor=default;verticalAlign=top;aspect=fixed;imageAspect=0;image=https://upload.wikimedia.org/wikipedia/en/e/eb/Windows_95_at_first_run.png;" parent="1" vertex="1">
                    <mxGeometry x="-710" y="-330" width="640" height="480" as="geometry"/>
                </mxCell>
                <mxCell id="28" value="" style="group" parent="1" vertex="1" connectable="0">
                    <mxGeometry x="-860" y="210" width="800" height="440" as="geometry"/>
                </mxCell>
                <mxCell id="3" value="" style="rounded=0;whiteSpace=wrap;html=1;fillColor=#008282;strokeColor=none;" parent="28" vertex="1">
                    <mxGeometry width="800" height="440.00000000000006" as="geometry"/>
                </mxCell>
                <mxCell id="16" value="" style="rounded=0;whiteSpace=wrap;html=1;fillColor=#C3C3C3;strokeColor=default;" parent="28" vertex="1">
                    <mxGeometry x="172.3076923076923" y="25.882352941176475" width="443.0769230769231" height="336.47058823529414" as="geometry"/>
                </mxCell>
                <mxCell id="23" value="" style="rounded=0;whiteSpace=wrap;html=1;strokeColor=none;fillColor=#000082;" parent="28" vertex="1">
                    <mxGeometry x="172.3076923076923" y="27.176470588235297" width="439.38461538461536" height="25.882352941176475" as="geometry"/>
                </mxCell>
                <mxCell id="6" value="" style="rounded=0;whiteSpace=wrap;html=1;fillColor=#C3C3C3;strokeColor=none;" parent="28" vertex="1">
                    <mxGeometry y="401.17647058823536" width="800" height="38.82352941176471" as="geometry"/>
                </mxCell>
                <mxCell id="8" value="" style="rounded=0;whiteSpace=wrap;html=1;strokeColor=#000000;fillColor=#C3C3C3;" parent="28" vertex="1">
                    <mxGeometry x="12.307692307692307" y="405.0588235294118" width="61.53846153846153" height="32.352941176470594" as="geometry"/>
                </mxCell>
                <mxCell id="9" value="" style="endArrow=none;html=1;entryX=0;entryY=0;entryDx=0;entryDy=0;strokeColor=light-dark(#ffffff, #ededed);exitX=0;exitY=1;exitDx=0;exitDy=0;" parent="28" source="8" target="8" edge="1">
                    <mxGeometry width="50" height="50" relative="1" as="geometry">
                        <mxPoint x="11.076923076923077" y="440.00000000000006" as="sourcePoint"/>
                        <mxPoint x="160" y="388.2352941176471" as="targetPoint"/>
                    </mxGeometry>
                </mxCell>
                <mxCell id="10" value="" style="endArrow=none;html=1;entryX=0;entryY=0;entryDx=0;entryDy=0;strokeColor=light-dark(#ffffff, #ededed);exitX=1;exitY=0;exitDx=0;exitDy=0;" parent="28" source="8" target="8" edge="1">
                    <mxGeometry width="50" height="50" relative="1" as="geometry">
                        <mxPoint x="61.53846153846153" y="485.2941176470589" as="sourcePoint"/>
                        <mxPoint x="61.53846153846153" y="452.94117647058823" as="targetPoint"/>
                    </mxGeometry>
                </mxCell>
                <mxCell id="11" value="" style="endArrow=none;html=1;entryX=0;entryY=0.048;entryDx=0;entryDy=0;strokeColor=light-dark(#ffffff, #ededed);exitX=1.001;exitY=0.049;exitDx=0;exitDy=0;entryPerimeter=0;exitPerimeter=0;" parent="28" source="6" target="6" edge="1">
                    <mxGeometry width="50" height="50" relative="1" as="geometry">
                        <mxPoint x="86.15384615384615" y="418.00000000000006" as="sourcePoint"/>
                        <mxPoint x="24.615384615384613" y="418.00000000000006" as="targetPoint"/>
                    </mxGeometry>
                </mxCell>
                <mxCell id="12" value="" style="rounded=0;whiteSpace=wrap;html=1;fillColor=#C3C3C3;strokeColor=#878787;" parent="28" vertex="1">
                    <mxGeometry x="726.1538461538462" y="407.97058823529414" width="61.53846153846153" height="26.529411764705884" as="geometry"/>
                </mxCell>
                <mxCell id="13" value="" style="endArrow=none;html=1;entryX=1;entryY=0;entryDx=0;entryDy=0;exitX=1;exitY=1;exitDx=0;exitDy=0;strokeColor=#FAFAFA;" parent="28" source="12" target="12" edge="1">
                    <mxGeometry width="50" height="50" relative="1" as="geometry">
                        <mxPoint x="701.5384615384615" y="543.529411764706" as="sourcePoint"/>
                        <mxPoint x="763.076923076923" y="478.82352941176475" as="targetPoint"/>
                    </mxGeometry>
                </mxCell>
                <mxCell id="14" value="" style="endArrow=none;html=1;entryX=0;entryY=1;entryDx=0;entryDy=0;exitX=1;exitY=1;exitDx=0;exitDy=0;strokeColor=#FAFAFA;" parent="28" source="12" target="12" edge="1">
                    <mxGeometry width="50" height="50" relative="1" as="geometry">
                        <mxPoint x="800" y="447.764705882353" as="sourcePoint"/>
                        <mxPoint x="800" y="420.5882352941177" as="targetPoint"/>
                    </mxGeometry>
                </mxCell>
                <mxCell id="21" value="" style="endArrow=none;html=1;entryX=0;entryY=0;entryDx=0;entryDy=0;exitX=0;exitY=1;exitDx=0;exitDy=0;strokeColor=#FFFFFF;" parent="28" source="16" target="16" edge="1">
                    <mxGeometry width="50" height="50" relative="1" as="geometry">
                        <mxPoint x="283.0769230769231" y="181.17647058823533" as="sourcePoint"/>
                        <mxPoint x="344.6153846153846" y="116.47058823529413" as="targetPoint"/>
                    </mxGeometry>
                </mxCell>
                <mxCell id="22" value="" style="endArrow=none;html=1;exitX=1;exitY=0;exitDx=0;exitDy=0;strokeColor=#FFFFFF;entryX=0;entryY=0;entryDx=0;entryDy=0;" parent="28" source="16" target="23" edge="1">
                    <mxGeometry width="50" height="50" relative="1" as="geometry">
                        <mxPoint x="898.4615384615383" y="336.47058823529414" as="sourcePoint"/>
                        <mxPoint x="504.6153846153846" y="-25.882352941176475" as="targetPoint"/>
                    </mxGeometry>
                </mxCell>
                <mxCell id="24" value="" style="rounded=0;whiteSpace=wrap;html=1;fillColor=#C3C3C3;" parent="28" vertex="1">
                    <mxGeometry x="593.2307692307692" y="33.64705882352941" width="12.307692307692307" height="12.941176470588237" as="geometry"/>
                </mxCell>
                <mxCell id="25" value="" style="endArrow=none;html=1;entryX=0;entryY=0;entryDx=0;entryDy=0;exitX=0;exitY=1;exitDx=0;exitDy=0;strokeColor=#FFFFFF;" parent="28" source="24" target="24" edge="1">
                    <mxGeometry width="50" height="50" relative="1" as="geometry">
                        <mxPoint x="504.6153846153846" y="51.76470588235295" as="sourcePoint"/>
                        <mxPoint x="566.1538461538462" y="-12.941176470588237" as="targetPoint"/>
                    </mxGeometry>
                </mxCell>
                <mxCell id="26" value="" style="endArrow=none;html=1;entryX=0;entryY=0;entryDx=0;entryDy=0;exitX=1;exitY=0;exitDx=0;exitDy=0;strokeColor=#FFFFFF;" parent="28" source="24" target="24" edge="1">
                    <mxGeometry width="50" height="50" relative="1" as="geometry">
                        <mxPoint x="605.5384615384615" y="59.529411764705884" as="sourcePoint"/>
                        <mxPoint x="605.5384615384615" y="46.58823529411765" as="targetPoint"/>
                    </mxGeometry>
                </mxCell>
                <mxCell id="30" value="MENU" style="text;html=1;align=center;verticalAlign=middle;whiteSpace=wrap;rounded=0;" vertex="1" parent="28">
                    <mxGeometry x="10" y="407.40999999999997" width="60" height="30" as="geometry"/>
                </mxCell>
                <mxCell id="32" value="" style="shape=image;verticalLabelPosition=bottom;labelBackgroundColor=default;verticalAlign=top;aspect=fixed;imageAspect=0;image=data:image/png,iVBORw0KGgoAAAANSUhEUgAAADAAAAAwCAMAAABg3Am1AAAAIGNIUk0AAHomAACAhAAA+gAAAIDoAAB1MAAA6mAAADqYAAAXcJy6UTwAAABUUExURQAAAJmZmefn1szMzIaGhgAAAMDAwFVVVfj4+Orq6gAzZjMAmTMzzABmzABm/2aZ/3d3d5nM/8zM/wAAgJmZzGZmZq2pkLKysgD/ADOZMwCAAP///2bfdbcAAAABdFJOUwBA5thmAAAAAWJLR0QbAmDUpAAAAAd0SU1FB+kIHBYDA32vnrcAAAFRSURBVEjHvZXZdoMgFEWFXERLjKYpJvb/P7RXBhlkSh66eUhW1tkeiIhd94+QCqc8vZSgwOJ8X4ICZ+/lI4EMZUgkkGEsQhMCLZISIMuQFr5yiJxwndQIEPvICZieTgY6hYbbfDvnCw3TPMwTO2hsWO4GVm9Qa1i+DS0N+4iFQsNVGSg8LKzSoEABfgys1mAFs0UpU/mKgP+nFqgS6g0ImHxbgxGobhBNDYt9Cphoa/B2R61BpEZOeIgcGaFwZqQFewyYb+6H4xCQUqZOjTH4OATMA/S2hcBahmB+gaedFkhWBa//5FILePTIKjgfKXUDLNDCnlcNMLSx13AtjE1I1zDi+yUYSB+P1W+I0xiI80o4GoI83eOXaMFK4F7D67WF8wlvghK437Btv8d8zvPvzw3+fJJ53aDvm1tD/vq6wWwMujYh3c5rwz1A9Z2q6T7jDzHJOseasWZ6AAAAJXRFWHRkYXRlOmNyZWF0ZQAyMDI1LTA4LTI4VDIyOjAzOjAyKzAwOjAwFAFY8wAAACV0RVh0ZGF0ZTptb2RpZnkAMjAyNS0wOC0yOFQyMjowMzowMiswMDowMGVc4E8AAAAodEVYdGRhdGU6dGltZXN0YW1wADIwMjUtMDgtMjhUMjI6MDM6MDMrMDA6MDCUPsokAAAAAElFTkSuQmCC;" vertex="1" parent="28">
                    <mxGeometry x="10" y="25.880000000000006" width="48" height="48" as="geometry"/>
                </mxCell>
                <mxCell id="33" value="&lt;font style=&quot;color: rgb(255, 255, 255);&quot;&gt;SELL&lt;/font&gt;" style="text;html=1;align=center;verticalAlign=middle;resizable=0;points=[];autosize=1;strokeColor=none;fillColor=none;" vertex="1" parent="28">
                    <mxGeometry x="172.30999999999995" y="25.879999999999995" width="50" height="30" as="geometry"/>
                </mxCell>
            </root>
        </mxGraphModel>
    </diagram>
</mxfile>